<svg width="32" height="32" viewBox="0 0 32 32" fill="none" xmlns="http://www.w3.org/2000/svg">
<path opacity="0.4" d="M16 32C24.8366 32 32 24.8366 32 16C32 7.16344 24.8366 0 16 0C7.16344 0 0 7.16344 0 16C0 24.8366 7.16344 32 16 32Z" fill="#FF692C"/>
<path d="M13.7269 22C13.4067 22 13.1026 21.8661 12.8784 21.6317L8.34817 16.8936C7.88394 16.4081 7.88394 15.6045 8.34817 15.1189C8.81241 14.6334 9.58079 14.6334 10.045 15.1189L13.7269 18.9697L21.955 10.3641C22.4192 9.87862 23.1876 9.87862 23.6518 10.3641C24.1161 10.8497 24.1161 11.6533 23.6518 12.1388L14.5753 21.6317C14.3512 21.8661 14.047 22 13.7269 22Z" fill="#FF692C"/>
</svg>
