<svg width="32" height="32" viewBox="0 0 32 32" fill="none" xmlns="http://www.w3.org/2000/svg">
<path opacity="0.4" d="M16 32C24.8366 32 32 24.8366 32 16C32 7.16344 24.8366 0 16 0C7.16344 0 0 7.16344 0 16C0 24.8366 7.16344 32 16 32Z" fill="#A0A0A0"/>
<path d="M17.7778 15.9979L21.6352 12.1418C22.1216 11.6556 22.1216 10.8509 21.6352 10.3647C21.1488 9.87845 20.3438 9.87845 19.8574 10.3647L16 14.2207L12.1426 10.3647C11.6562 9.87845 10.8512 9.87845 10.3648 10.3647C9.87841 10.8509 9.87841 11.6556 10.3648 12.1418L14.2222 15.9979L10.3648 19.854C9.87841 20.3402 9.87841 21.145 10.3648 21.6312C10.6164 21.8826 10.935 22 11.2537 22C11.5723 22 11.891 21.8826 12.1426 21.6312L16 17.7751L19.8574 21.6312C20.109 21.8826 20.4277 22 20.7463 22C21.065 22 21.3836 21.8826 21.6352 21.6312C22.1216 21.145 22.1216 20.3402 21.6352 19.854L17.7778 15.9979Z" fill="white"/>
</svg>
