<svg width="30" height="34" viewBox="0 0 30 34" fill="none" xmlns="http://www.w3.org/2000/svg">
<path d="M22.9167 3.78506V1.22892C22.9167 0.557109 22.35 0 21.6667 0C20.9834 0 20.4167 0.557109 20.4167 1.22892V3.68675H9.58335V1.22892C9.58335 0.557109 9.01669 0 8.33335 0C7.65002 0 7.08335 0.557109 7.08335 1.22892V3.78506C2.58335 4.1947 0.400021 6.83277 0.0666875 10.7489C0.0333542 11.2241 0.433354 11.6173 0.900021 11.6173H29.1C29.5834 11.6173 29.9834 11.2077 29.9334 10.7489C29.6 6.83277 27.4167 4.1947 22.9167 3.78506Z" fill="black"/>
<path opacity="0.4" d="M28.3333 14.0752C29.25 14.0752 30 14.8126 30 15.7138V25.8073C30 30.723 27.5 34.0001 21.6667 34.0001H8.33335C2.50002 34.0001 1.52588e-05 30.723 1.52588e-05 25.8073V15.7138C1.52588e-05 14.8126 0.750015 14.0752 1.66668 14.0752H28.3333Z" fill="black"/>
<path d="M9.16674 22.5301C8.7334 22.5301 8.30007 22.3499 7.9834 22.0549C7.6834 21.7436 7.50007 21.3176 7.50007 20.8916C7.50007 20.4655 7.6834 20.0395 7.9834 19.7282C8.45007 19.2694 9.1834 19.1219 9.80007 19.3841C10.0167 19.466 10.2001 19.5807 10.3501 19.7282C10.6501 20.0395 10.8334 20.4655 10.8334 20.8916C10.8334 21.3176 10.6501 21.7436 10.3501 22.0549C10.0334 22.3499 9.60007 22.5301 9.16674 22.5301Z" fill="black"/>
<path d="M15 22.5301C14.5667 22.5301 14.1333 22.3499 13.8167 22.0549C13.5167 21.7436 13.3333 21.3176 13.3333 20.8916C13.3333 20.4655 13.5167 20.0395 13.8167 19.7282C13.9667 19.5807 14.15 19.466 14.3667 19.3841C14.9833 19.1219 15.7167 19.2694 16.1833 19.7282C16.4833 20.0395 16.6667 20.4655 16.6667 20.8916C16.6667 21.3176 16.4833 21.7436 16.1833 22.0549C16.1 22.1205 16.0167 22.186 15.9333 22.2515C15.8333 22.3171 15.7333 22.3663 15.6333 22.3991C15.5333 22.4482 15.4333 22.481 15.3333 22.4974C15.2167 22.5138 15.1167 22.5301 15 22.5301Z" fill="black"/>
<path d="M20.8333 22.5301C20.4 22.5301 19.9667 22.3499 19.65 22.0549C19.35 21.7436 19.1667 21.3176 19.1667 20.8916C19.1667 20.4655 19.35 20.0395 19.65 19.7282C19.8167 19.5807 19.9833 19.466 20.2 19.3841C20.5 19.253 20.8333 19.2202 21.1667 19.2858C21.2667 19.3021 21.3667 19.3349 21.4667 19.3841C21.5667 19.4168 21.6667 19.466 21.7667 19.5316C21.85 19.5971 21.9333 19.6627 22.0167 19.7282C22.3167 20.0395 22.5 20.4655 22.5 20.8916C22.5 21.3176 22.3167 21.7436 22.0167 22.0549C21.9333 22.1205 21.85 22.186 21.7667 22.2515C21.6667 22.3171 21.5667 22.3663 21.4667 22.3991C21.3667 22.4482 21.2667 22.481 21.1667 22.4974C21.05 22.5138 20.9333 22.5301 20.8333 22.5301Z" fill="black"/>
<path d="M9.16674 28.2651C8.95007 28.2651 8.7334 28.216 8.5334 28.134C8.31673 28.0521 8.15007 27.9374 7.9834 27.7899C7.6834 27.4786 7.50007 27.0526 7.50007 26.6266C7.50007 26.2005 7.6834 25.7745 7.9834 25.4632C8.15007 25.3157 8.31673 25.201 8.5334 25.1191C8.8334 24.988 9.16674 24.9552 9.50007 25.0207C9.60007 25.0371 9.70007 25.0699 9.80007 25.1191C9.90007 25.1518 10.0001 25.201 10.1001 25.2666C10.1834 25.3321 10.2667 25.3976 10.3501 25.4632C10.6501 25.7745 10.8334 26.2005 10.8334 26.6266C10.8334 27.0526 10.6501 27.4786 10.3501 27.7899C10.2667 27.8555 10.1834 27.9374 10.1001 27.9865C10.0001 28.0521 9.90007 28.1013 9.80007 28.134C9.70007 28.1832 9.60007 28.216 9.50007 28.2324C9.3834 28.2487 9.2834 28.2651 9.16674 28.2651Z" fill="black"/>
<path d="M15 28.2651C14.5667 28.2651 14.1333 28.0848 13.8167 27.7899C13.5167 27.4786 13.3333 27.0526 13.3333 26.6265C13.3333 26.2005 13.5167 25.7745 13.8167 25.4632C14.4333 24.8569 15.5667 24.8569 16.1833 25.4632C16.4833 25.7745 16.6667 26.2005 16.6667 26.6265C16.6667 27.0526 16.4833 27.4786 16.1833 27.7899C15.8667 28.0848 15.4333 28.2651 15 28.2651Z" fill="black"/>
<path d="M20.8333 28.2651C20.4 28.2651 19.9667 28.0848 19.65 27.7899C19.35 27.4786 19.1667 27.0526 19.1667 26.6265C19.1667 26.2005 19.35 25.7745 19.65 25.4632C20.2667 24.8569 21.4 24.8569 22.0167 25.4632C22.3167 25.7745 22.5 26.2005 22.5 26.6265C22.5 27.0526 22.3167 27.4786 22.0167 27.7899C21.7 28.0848 21.2667 28.2651 20.8333 28.2651Z" fill="black"/>
</svg>
